<svg xmlns="http://www.w3.org/2000/svg" viewBox="0 0 250 232.75"><defs><style>.cls-1{fill:#c29961;}</style></defs><g id="Capa_2" data-name="Capa 2"><g id="SECTION_3_-_WAITER_TEAM" data-name="SECTION 3 - WAITER TEAM"><g id="Descripcion"><path class="cls-1" d="M249.77,102.42H.23c-.08.39-.15.77-.23,1.15a18.33,18.33,0,0,0,3.23.6c6.23.06,12.47-.2,18.69.09,5.76.27,11.67.43,17.21,1.83,8.16,2.07,16.44,2.16,24.68,2.63,5.08.29,9.59,1.5,13.57,4.42,4.25,3.12,8.25,6.58,12.38,9.85,9.95,7.88,20.66,14.25,33.34,16.68,12.26,2.35,23.06-2.15,29.83-12.18a96.56,96.56,0,0,0-.39,14c.29,7.42.6,15.09-4.14,21.7a4.18,4.18,0,0,0-.86,3.17,4.92,4.92,0,0,0,2.32,3.09l3.61,2.48c2.41,1.66,4.9,3.38,7.42,5a2.19,2.19,0,0,1,1.08,3c-1.82,5.68-5.65,10-12.06,13.69a4.51,4.51,0,0,1-2.21.74,4.13,4.13,0,0,1-2.49-1.07c-8.63-6.69-17.44-13.43-26-20-9.69-7.41-19.71-15.07-29.5-22.68a142.2,142.2,0,0,1-15.45-13.82,48.52,48.52,0,0,1-7.63-10.73,44.55,44.55,0,0,0,5.6,6.12c4,3.4,8.29,6.47,12.48,9.45,2.08,1.47,4.23,3,6.31,4.55,1.1.81,8.08,3.32,8.08,3.32l-.87-.8-.84-.8c-.58-.55-1.13-1.07-1.7-1.57-1.9-1.66-3.85-3.33-5.74-5-4.17-3.58-8.49-7.28-12.55-11.1-2.32-2.19-4.51-4.62-6.64-7-1.91-2.12-3.89-4.31-6-6.34A46.61,46.61,0,0,0,59,112.51c-.92-.64-1.88-1.31-2.81-2l-1.2,1,1.56,2.87c1.08,2,2.09,3.79,3,5.66,1.57,3.26,3,6.62,4.35,9.78A51,51,0,0,0,79,150.32c3.3,2.65,6.61,5.41,9.81,8.08,4.62,3.85,9.39,7.83,14.22,11.58,6.79,5.25,13.8,10.44,20.58,15.45,3.91,2.89,7.95,5.88,11.89,8.84l0,0c.58.43,2.36,1.77,2.42,2.31-.56,4.71,2.23,7.23,5.08,9.15-1.22,3.63,0,6.66,3.63,9,9.89,6.47,18.64,12.18,26.77,17.47a2.69,2.69,0,0,0,1,.33c.2,0,.42.08.71.15l.72-1.41-23.58-19.86c1.37-1.29,2.77-2.54,4.13-3.76a69.65,69.65,0,0,0,9.89-10.09,69.13,69.13,0,0,0,6.78-12.38c.76-1.66,1.55-3.36,2.39-5L194,189.1l.85-1.37a192.08,192.08,0,0,0-19-13.34c-3.23-2-7.5-4.31-11.86-5-2.75-.42-4.75-1.78-6.86-3.21q-.9-.62-1.86-1.23c4.7-7.77,4.48-16,3.84-23.83-.79-9.69-.44-20,7.47-29.43l-1-1.23c-.27.14,4.88-2.42,8.65-2.29,8.73.3,17.52.63,26.09-1.85a64.42,64.42,0,0,1,19.41-2.18c9,.18,17.95.07,26.92,0a17.75,17.75,0,0,0,3.34-.65C249.92,103.16,249.84,102.79,249.77,102.42Zm-83.19,75.47c1.79.85,2.79,1.47,3.16,2.17s.18,2-.45,4.13A32.32,32.32,0,0,1,154.73,203a5.81,5.81,0,0,1-2.88,1.09h0c-.56,0-1.42-.15-2.52-1.52-.47-.57-1-1.07-1.57-1.66l-.11-.11C157.58,196.06,163.94,188.35,166.58,177.89ZM79.23,108.41H89.4l5,11.21Zm68.63,17.31c-4.93,8-13,9.63-21.6,9-10.19-.79-19.21-5.26-27-11.42-3-2.34-2.83-4.74-4.78-10.18,3.52.59,3.6.93,8.77,6.37L104,119l-6.88-10.53h68.24C156.85,111.53,152.32,118.49,147.86,125.72Z"/><path class="cls-1" d="M32.05,85.56c6.19,0,11.9.11,17.6-.12.87,0,1.89-1.49,2.48-2.51,14.09-24.22,35.59-38.35,62.24-45.54C94.52,48.69,77.2,62.3,69,85.59h6.23q74.93,0,149.84-.07c3.49,0,6,.62,7.79,3.88,1.15,2.11,2.86,3.92,4.71,6.37H12.39C36.67,44.48,76.23,19.31,133.82,23.49c-1.76-3.61-3.23-5.92-7.24-5.8-8.32.26-16.64.08-24.79.08,1.4-6.89,13.33-17.64,21-17.77a21,21,0,0,1,8.79,1.89c6.3,2.9,13.34,11.08,16.07,17.9l-6-.56c1.17,4,3.33,5.75,7.34,6.62,21.24,4.64,39.61,15.06,56.07,29a116.53,116.53,0,0,1,13.32,13.25c-6-4.18-11.95-8.51-18.1-12.5-19.05-12.37-39.53-21.39-62.26-24-33.78-3.83-64,4.31-88.47,28.92C43.49,66.7,39,74.52,33.89,81.62A24.36,24.36,0,0,0,32.05,85.56Z"/><circle class="cls-1" cx="154.2" cy="199.98" r="1.92"/></g></g></g></svg>