<svg xmlns="http://www.w3.org/2000/svg" viewBox="0 0 200 311.07"><defs><style>.cls-1{fill:#c29961;}</style></defs><g id="Capa_2" data-name="Capa 2"><g id="SECTION_2_-_CUISINE_TEAM" data-name="SECTION 2 - CUISINE TEAM"><g id="Descripcion"><g id="Simbol"><path class="cls-1" d="M120.53,222.79a73.34,73.34,0,0,1-.44-11.81c1.53-9.32-1.77-18.09-4.6-23C112.21,182.31,3.94,15.73,3.94,15.73,10.24-.34,25.53,3.27,25.53,3.27s79.24,159.91,97.1,179.86a50.56,50.56,0,0,0,21.87,16.76A61.65,61.65,0,0,1,167,227.14l33,68.63s-.31,2.85-2.14,1.24L163.44,238.7s-1.81-3.14-4.07-1.83-.22,3,.38,3.78,32.54,59.77,32.54,59.77-.06,3.28-2.06,1.38l-34.91-57.08s-1.83-3.7-4.32-2.26c0,0-1.14,1.41,1.36,4.93s33,57.31,33,57.31.07,2.68-1.88,1.65l-36.76-56.81s-1.76-3.27-3.88-2,0,3.72.71,5.15,33.76,56.71,33.76,56.71,0,2.46-1.84,1.49L140.4,261.89S123.22,237.05,120.53,222.79Z"/><path class="cls-1" d="M190.62,13.18C172.22,38.6,89.89,186.8,89.89,186.8c-34.7,89.59-66.41,116.84-79.53,120.53C-2.31,310.89.2,301.63.2,301.63l67.22-114.3s6-7.91,7.59-9.76C93.28,155.84,167,.67,167,.67,183.52-3.5,190.62,13.18,190.62,13.18Z"/></g></g></g></g></svg>