<?xml version="1.0" encoding="UTF-8" standalone="no"?>
<!DOCTYPE svg PUBLIC "-//W3C//DTD SVG 1.1//EN" "http://www.w3.org/Graphics/SVG/1.1/DTD/svg11.dtd">
<svg xmlns="http://www.w3.org/2000/svg" version="1.1" viewBox="0.00 0.00 512.00 512.00">
<path fill="#000000" d="
  M 512.00 300.62
  L 512.00 310.28
  C 507.03 439.12 361.99 511.41 256.40 435.87
  A 0.75 0.74 -45.3 0 0 255.54 435.88
  C 189.86 483.36 98.76 474.72 43.55 415.32
  Q 2.86 371.55 0.00 310.21
  L 0.00 299.20
  C 3.93 226.73 52.12 166.76 122.54 148.89
  A 0.35 0.35 0.0 0 0 122.72 148.32
  Q 101.92 124.49 81.26 100.80
  C 78.07 97.14 76.34 93.42 79.63 89.38
  Q 96.47 68.72 113.30 48.05
  Q 115.29 45.62 119.00 45.61
  Q 185.52 45.47 203.25 45.52
  Q 206.76 45.53 209.10 48.39
  Q 225.80 68.70 242.35 89.14
  C 245.96 93.60 244.32 97.01 240.82 101.03
  Q 220.19 124.69 199.50 148.39
  A 0.28 0.28 0.0 0 0 199.65 148.85
  Q 230.14 156.36 255.51 174.80
  A 0.77 0.76 45.3 0 0 256.41 174.81
  C 260.99 171.63 265.75 168.27 270.40 165.66
  C 376.66 105.87 507.39 178.19 512.00 300.62
  Z
  M 101.63 86.18
  A 0.31 0.31 0.0 0 0 101.87 86.69
  L 125.45 86.69
  A 0.31 0.31 0.0 0 0 125.75 86.48
  L 133.99 60.93
  A 0.31 0.31 0.0 0 0 133.69 60.52
  L 122.69 60.52
  A 0.31 0.31 0.0 0 0 122.45 60.63
  L 101.63 86.18
  Z
  M 180.24 86.69
  A 0.40 0.40 0.0 0 0 180.62 86.17
  L 172.44 60.80
  A 0.40 0.40 0.0 0 0 172.06 60.52
  L 150.20 60.52
  A 0.40 0.40 0.0 0 0 149.82 60.80
  L 141.64 86.17
  A 0.40 0.40 0.0 0 0 142.02 86.69
  L 180.24 86.69
  Z
  M 196.51 86.47
  A 0.32 0.32 0.0 0 0 196.81 86.69
  L 220.39 86.69
  A 0.32 0.32 0.0 0 0 220.63 86.17
  L 199.85 60.64
  A 0.32 0.32 0.0 0 0 199.60 60.52
  L 188.58 60.52
  A 0.32 0.32 0.0 0 0 188.27 60.94
  L 196.51 86.47
  Z
  M 125.90 101.93
  A 0.35 0.35 0.0 0 0 125.57 101.69
  L 102.75 101.69
  A 0.35 0.35 0.0 0 0 102.49 102.27
  L 140.26 145.56
  A 0.35 0.35 0.0 0 0 140.85 145.21
  L 125.90 101.93
  Z
  M 219.86 102.20
  A 0.31 0.31 0.0 0 0 219.63 101.69
  L 196.66 101.69
  A 0.31 0.31 0.0 0 0 196.37 101.90
  L 181.33 145.45
  A 0.31 0.31 0.0 0 0 181.86 145.75
  L 219.86 102.20
  Z
  M 156.34 144.03
  A 0.34 0.34 0.0 0 0 156.66 144.26
  L 165.60 144.25
  A 0.34 0.34 0.0 0 0 165.92 144.02
  L 180.38 102.14
  A 0.34 0.34 0.0 0 0 180.06 101.69
  L 142.20 101.69
  A 0.34 0.34 0.0 0 0 141.88 102.14
  L 156.34 144.03
  Z
  M 288.29 327.34
  C 284.93 346.60 277.22 364.97 265.78 380.79
  A 0.60 0.60 0.0 0 0 265.85 381.57
  L 277.38 392.75
  A 0.60 0.59 40.0 0 0 278.28 392.68
  C 325.51 328.62 313.60 239.61 251.18 190.33
  C 205.00 153.88 139.86 149.07 88.58 178.58
  C 20.12 217.98 -5.53 305.30 32.91 375.32
  C 74.63 451.32 171.79 474.35 243.44 426.10
  A 0.29 0.29 0.0 0 0 243.48 425.65
  L 231.56 413.84
  A 0.34 0.34 0.0 0 0 231.14 413.79
  C 165.13 456.14 78.60 430.80 44.56 360.73
  C 25.06 320.57 28.61 271.21 53.86 233.62
  Q 56.20 230.13 58.32 229.11
  C 63.09 226.82 69.47 231.42 68.75 236.61
  Q 68.47 238.70 65.74 242.87
  C 23.20 307.98 57.29 396.55 132.49 415.77
  C 161.67 423.22 195.38 419.05 221.33 402.08
  Q 221.77 401.79 221.46 401.37
  C 179.10 343.50 179.38 267.13 221.48 209.30
  Q 221.82 208.84 221.33 208.55
  C 181.11 183.78 131.76 185.96 93.48 213.77
  C 90.36 216.04 85.92 220.34 82.57 220.96
  C 77.33 221.95 72.43 215.86 74.39 211.11
  Q 75.33 208.81 79.09 205.74
  C 157.96 141.19 276.78 188.85 289.24 289.75
  C 289.72 293.68 289.51 296.80 286.26 299.00
  C 281.72 302.06 275.14 299.29 274.55 293.75
  Q 271.59 265.85 256.27 242.61
  A 0.41 0.41 0.0 0 0 255.58 242.61
  C 230.74 280.88 230.44 330.08 255.72 368.20
  Q 255.99 368.60 256.25 368.20
  Q 269.64 347.68 273.64 323.84
  Q 274.13 320.95 274.77 319.77
  C 277.90 314.08 286.70 314.86 288.42 321.15
  Q 289.00 323.27 288.29 327.34
  Z
  M 411.30 172.46
  C 364.69 151.21 310.74 155.90 268.46 184.68
  A 0.20 0.19 50.1 0 0 268.44 184.98
  L 280.47 196.90
  A 0.31 0.30 -38.2 0 0 280.85 196.94
  C 320.30 171.52 370.03 169.49 411.71 191.57
  C 475.56 225.39 498.48 305.78 463.29 369.02
  Q 460.76 373.57 459.55 374.55
  C 454.15 378.94 445.72 374.89 446.93 368.25
  Q 447.22 366.68 449.92 361.80
  Q 471.19 323.44 462.17 280.92
  C 451.91 232.53 409.41 195.53 360.75 191.76
  Q 322.68 188.81 290.42 208.70
  A 0.27 0.27 0.0 0 0 290.34 209.09
  C 332.47 266.15 333.04 344.01 290.49 401.37
  Q 290.13 401.86 290.64 402.17
  C 332.18 427.58 384.05 424.68 422.41 394.15
  C 425.09 392.02 430.32 386.05 434.07 385.16
  C 439.03 383.96 444.14 389.20 442.90 394.03
  Q 442.25 396.54 438.93 399.65
  C 386.30 448.84 304.43 445.17 255.72 392.51
  C 214.06 347.46 210.99 279.90 246.11 229.95
  Q 246.46 229.45 246.02 229.02
  L 234.64 218.00
  Q 234.16 217.53 233.76 218.07
  C 190.02 276.96 196.48 359.19 249.24 410.26
  C 288.57 448.34 345.18 461.11 397.10 443.90
  C 444.38 428.24 480.92 388.44 492.73 340.25
  C 509.45 272.08 475.28 201.62 411.30 172.46
  Z"
/>
</svg>
