<?xml version="1.0" encoding="utf-8"?>
<!-- Generator: Adobe Illustrator 26.1.0, SVG Export Plug-In . SVG Version: 6.00 Build 0)  -->
<svg version="1.1" id="Layer_2" xmlns="http://www.w3.org/2000/svg" xmlns:xlink="http://www.w3.org/1999/xlink" x="0px" y="0px"
	 viewBox="0 0 2500 1563" style="enable-background:new 0 0 2500 1563;" xml:space="preserve">
<style type="text/css">
	.st0{fill:#C2995E;}
</style>
<path class="st0" d="M625.7,624.3c-173.3,0-313.4,140.1-313.4,312.9s140.1,312.9,312.9,312.9S938.1,1110,938.1,937.2
	C938.6,764.4,798.5,624.3,625.7,624.3L625.7,624.3z M625.7,1161.2c-123.5,0-224-100.1-224-224s100.1-224,224-224
	s223.5,100.5,223.5,224S749.2,1161.2,625.7,1161.2z"/>
<circle class="st0" cx="626.7" cy="936.7" r="155.7"/>
<path class="st0" d="M1875.2,624.3c-172.8,0-312.9,140.1-312.9,312.9s140.1,312.9,312.9,312.9s312.9-140.1,312.9-312.9
	C2188.1,764.4,2048,624.3,1875.2,624.3z M1875.2,1161.2c-123.5,0-224-100.1-224-224s100.1-224,224-224s223.5,100.5,223.5,224
	S1998.7,1161.2,1875.2,1161.2z"/>
<circle class="st0" cx="1876.2" cy="936.7" r="155.7"/>
<path class="st0" d="M2315.5,494l184-182.5h-372.9C1917.7,141.6,1570.7,0.1,1249,0.1c-322.1,0-666.2,141.5-875.1,311.4H0L184,494
	C70.3,607.3,0,763.9,0,937.2c0,345.6,280.2,625.7,625.7,625.7c158.6,0,303.6-59.1,413.9-156.7l211.8,155.7l209.4-152.3l-2.4-5.9
	c110.8,98.6,256.2,158.6,416.3,158.6c345.6,0,625.7-280.2,625.7-625.7C2500,763.9,2429.2,607.3,2315.5,494L2315.5,494z
	 M1796.2,316.3c-296.3,37.1-528.6,281.1-546.2,583.3C1231.9,597,999.1,352.5,701.9,316.3C851.2,209,1041.6,156.3,1249,156.3
	S1646.8,209,1796.2,316.3z M625.7,1406.7c-259.7,0-469.5-210.4-469.5-469.5s210.4-469.5,469.5-469.5s469.5,210.4,469.5,469.5
	C1094.8,1196.4,884.9,1406.7,625.7,1406.7z M1875.2,1406.7c-259.2,0-469.5-210.4-469.5-469.5s210.4-469.5,469.5-469.5
	s469.5,210.4,469.5,469.5C2344.3,1196.4,2134.4,1406.7,1875.2,1406.7z"/>
</svg>
