<?xml version="1.0" encoding="utf-8"?>
<!-- Generator: Adobe Illustrator 26.1.0, SVG Export Plug-In . SVG Version: 6.00 Build 0)  -->
<svg version="1.1" id="Capa_1" xmlns="http://www.w3.org/2000/svg" xmlns:xlink="http://www.w3.org/1999/xlink" x="0px" y="0px"
	 viewBox="0 0 480 300" style="enable-background:new 0 0 480 300;" xml:space="preserve">
<style type="text/css">
	.st0{display:none;}
	.st1{display:inline;}
	.st2{fill:url(#SVGID_1_);}
	.st3{fill:url(#SVGID_00000023259120501636734060000015670155085592302209_);}
	.st4{fill:url(#SVGID_00000174596545069147405030000008074505022988499095_);}
	.st5{fill:url(#SVGID_00000011017954724536497040000011284165102300158390_);}
	.st6{fill:url(#SVGID_00000058576801551071847540000014637971344185370267_);}
	.st7{fill:url(#SVGID_00000029020319302160967700000015781430544484952206_);}
	.st8{fill:url(#SVGID_00000116199587200596194310000013145972490894491281_);}
	.st9{fill:url(#SVGID_00000098927646976460771310000011721486043622916260_);}
	.st10{fill:url(#SVGID_00000095319641257961101760000001954152202994859705_);}
	.st11{fill:#C2995E;}
	.st12{fill:#CA393B;}
</style>
<g id="Capa_1_00000174583859380375142830000009788808271475118773_">
	<g class="st0">
		<g class="st1">
			
				<radialGradient id="SVGID_1_" cx="240.1957" cy="934.3921" r="178.9878" gradientTransform="matrix(1 0 0 1 0 -778)" gradientUnits="userSpaceOnUse">
				<stop  offset="0" style="stop-color:#DDD1B5"/>
				<stop  offset="0.5" style="stop-color:#BDA981"/>
				<stop  offset="1" style="stop-color:#A28654"/>
			</radialGradient>
			<path class="st2" d="M25.3,196.6c-2.3,0-4.6-0.1-6.9-0.4c-6.2-0.8-10.7-2.6-13.6-5.5s-4.3-6-4.3-9.3c0-3.6,1.6-6.9,4.8-9.8
				c3.2-2.9,7.7-4.4,13.6-4.4c3.9,0,8.2,0.8,12.8,2.4c2,0.6,4.4,1.6,7.3,3c2.9,1.4,5.8,2.9,8.6,4.3c2.8,1.5,5,2.6,6.6,3.5
				c4.3-4.2,8.3-9.1,12-14.6c3.7-5.5,7.2-11.5,10.5-17.8s6.7-12.7,10.1-19.2s7-12.8,10.8-18.9s8-11.7,12.6-16.8
				c-5.1-3.1-10.7-5.6-16.8-7.3S81,83.2,74.5,83.2c-2.4,0-4.9,0.1-7.4,0.4s-5,0.7-7.6,1.2c-9.1,2-16.8,5.1-23.1,9.3
				c-6.3,4.3-11,8.9-14.2,14c-3.2,5-4.8,9.8-4.8,14.3c0,3.3,0.9,6.3,2.6,8.8c1.8,2.5,4.5,4.4,8.1,5.4c2.6,0.8,4.9,1.2,6.9,1.2
				c3.2,0,6-0.7,8.4-2c2.4-1.3,4.4-3,6.1-4.9c1.7-2,2.9-3.9,3.7-5.7c0.8-1.9,1.3-3.4,1.4-4.6c0-0.7,0.4-1,1.3-1
				c1.4,0,1.9,0.8,1.6,2.5c-0.5,3.9-2,7.3-4.4,10.2s-5.4,5.1-8.8,6.8c-3.4,1.6-7,2.4-10.6,2.4c-2.4,0-4.8-0.4-7.3-1.2
				c-4.5-1.6-8.3-4.3-11.4-8.2s-4.6-8.4-4.6-13.7c0-5.2,1.7-10.4,5.2-15.6s9-10,16.7-14.2c7.6-4.2,17.6-7.2,30-9
				c4.1-0.6,8.3-0.9,12.5-0.9c7,0,13.8,0.8,20.5,2.5s13.1,4.1,19,7.2l3.7-4.3c0.9-0.8,2.1-1.8,3.7-2.9s3.3-2.3,4.9-3.4
				c1.7-1.1,2.9-1.8,3.7-2.1c1.3-0.5,2.3-0.7,3.1-0.7c0.6,0,0.9,0.1,0.9,0.4c0,0.7-0.8,1.5-2.4,2.5c-1,0.7-1.9,1.4-2.6,2.3
				c-0.8,0.8-1.4,1.5-1.8,2c-1.5,2.1-2.6,3.7-3.5,5c-0.8,1.3-1.9,2.9-3.3,5c9,6,16.4,13.7,22,23.1c5.7,9.5,8.5,20.3,8.5,32.4
				c0,2.5-0.1,5.1-0.4,7.8c-0.6,6.3-2.3,12-5.1,17c-2.8,5.1-6.5,9.4-11.1,12.9s-9.6,6.2-15.1,8.2c-5.5,1.9-11.3,2.9-17.4,2.9
				c-2.3,0-4.5-0.1-6.8-0.4c-9.6-1.2-17.5-2.7-23.7-4.6s-11.7-3.9-16.4-6C46.4,192.9,36.4,196.6,25.3,196.6z M22.1,192
				c5.4,0.3,10.4-0.4,15.1-2s9.1-3.9,13.1-6.8c-3.5-1.7-7.1-3.4-10.7-5.2c-3.6-1.8-7.4-3.5-11.5-4.9c-2.6-0.9-5-1.3-7.1-1.3
				c-3.6,0-6.4,1-8.2,3c-1.9,2-2.8,4.2-2.8,6.7c0,2.6,1,5,3.1,7.1S18.2,191.8,22.1,192z M99.7,192.2c7.8,0,14.8-1.7,20.8-5.1
				s10.9-7.8,14.6-13.3c3.7-5.5,5.9-11.4,6.6-17.8c0.3-2.4,0.4-4.7,0.4-7.1c0-10.7-2.3-20.4-6.8-29.2c-4.6-8.8-10.6-16.1-18-22.1
				c-4.3,6.8-8.7,13.9-13.3,21.5c-4.6,7.5-9.1,15-13.7,22.4s-9.1,14.2-13.4,20.5c-4.4,6.3-8.4,11.5-12.3,15.6
				c-0.7,0.6-1.5,1.4-2.6,2.6c-1,1.1-2.1,2-3.2,2.7c4.6,2.1,9.8,3.9,15.7,5.6s12.8,2.8,20.7,3.5c0.9,0.1,1.6,0.1,2.3,0.1
				C98.2,192.2,98.9,192.2,99.7,192.2z"/>
			
				<radialGradient id="SVGID_00000037650829851035714480000014392193013377346695_" cx="240.1957" cy="934.3921" r="178.9878" gradientTransform="matrix(1 0 0 1 0 -778)" gradientUnits="userSpaceOnUse">
				<stop  offset="0" style="stop-color:#DDD1B5"/>
				<stop  offset="0.5" style="stop-color:#BDA981"/>
				<stop  offset="1" style="stop-color:#A28654"/>
			</radialGradient>
			<path style="fill:url(#SVGID_00000037650829851035714480000014392193013377346695_);" d="M168.4,191.4c-3.6,0-6.9-1.2-9.8-3.5
				c-2.9-2.4-4.3-5.9-4.3-10.7c0-4.4,1.1-9.1,3.2-14.2c2.2-5,4.9-9.5,8.2-13.3c2.8-3.3,6-6.1,9.6-8.2c3.5-2.2,6.9-3.2,10-3.2
				c2.2,0,4,0.6,5.6,1.8c1.7,1.3,2.5,3.1,2.5,5.4c0,2.4-0.9,5.1-2.8,8.1c-1.9,2.9-4.5,5.7-7.9,8.2c-1.5,1.1-3.3,2.1-5.6,3.1
				s-4.5,1.8-6.8,2.4c-2.3,0.6-4.1,1-5.6,1c-0.5,1.2-1,2.7-1.4,4.7s-0.7,4-0.7,6c0,2.5,0.5,4.7,1.5,6.6c1,2,2.8,2.9,5.4,2.9
				c3.2,0,6.2-0.9,8.8-2.8s5-4.2,7.1-7s3.8-5.6,5.2-8.4c1.4-2.8,2.6-5.2,3.5-7.2c0.6-1.4,1.4-2.1,2.4-2.1c0.5,0,0.7,0.2,0.7,0.7
				c0,0.4-0.1,0.9-0.4,1.5c-1.4,2.9-2.8,6-4.4,9.3c-1.6,3.3-3.4,6.4-5.6,9.3c-2.2,2.9-4.7,5.2-7.7,7S172.5,191.4,168.4,191.4z
				 M165.8,165.6c1.4,0,3.7-0.5,6.9-1.5s6.2-2.7,8.8-4.9c2.5-2.3,4.5-4.7,5.9-7.4s2.1-5,2.1-6.8c0-2.2-0.8-3.2-2.4-3.2
				c-1.2,0-2.8,0.8-4.8,2.4c-2.1,1.6-4.6,4.2-7.6,7.9c-1.9,2.4-3.6,4.9-5.3,7.6C167.6,162.3,166.5,164.3,165.8,165.6z"/>
			
				<radialGradient id="SVGID_00000123437729821545835280000010818591770195823250_" cx="240.1957" cy="934.3921" r="178.9878" gradientTransform="matrix(1 0 0 1 0 -778)" gradientUnits="userSpaceOnUse">
				<stop  offset="0" style="stop-color:#DDD1B5"/>
				<stop  offset="0.5" style="stop-color:#BDA981"/>
				<stop  offset="1" style="stop-color:#A28654"/>
			</radialGradient>
			<path style="fill:url(#SVGID_00000123437729821545835280000010818591770195823250_);" d="M201.8,191.3c-4.1,0-6.9-1.1-8.4-3.3
				s-2.2-4.8-2.2-7.9c0-3.1,0.4-6.4,1.3-9.7c0.9-3.3,1.7-6.1,2.4-8.4c1.6-5.5,3.5-11.3,6-17.6c2.4-6.2,5-12.3,7.9-18.4
				c2.9-6,5.8-11.4,8.6-16.2c2.3-3.8,4.7-6.7,7.3-8.6s4.9-2.9,6.8-2.9c1.6,0,2.8,0.6,3.7,1.7s1.4,2.8,1.4,5.1c0,1.6-0.3,3.4-0.8,5.6
				s-1.4,4.6-2.7,7.3c-3.4,7.6-7.5,15.3-12.3,22.9c-4.8,7.6-10.8,14.8-18,21.5c-0.4,1.3-0.9,2.8-1.5,4.5s-1.2,3.5-1.7,5.2
				c-0.6,2.6-0.9,4.9-0.9,6.8c0,3,0.6,5.3,1.8,6.8s2.7,2.3,4.5,2.3c1.6,0,3.2-0.6,5-1.7s3.4-2.8,5-4.9c2.4-3.4,4.5-6.9,6.4-10.5
				s3.4-6.3,4.3-8.3c0.6-1.1,1.2-1.6,1.9-1.6c0.5,0,0.7,0.3,0.7,0.9c0,0.5-0.1,1-0.4,1.6c-0.9,2-2,4.5-3.5,7.6
				c-1.4,3.1-3.2,6.2-5.3,9.3s-4.6,5.7-7.5,7.8C208.8,190.2,205.5,191.3,201.8,191.3z M204,157.8c3.5-3.6,7-7.8,10.3-12.6
				s6.4-9.7,9.3-14.8c2.9-5.1,5.3-10,7.3-14.6c0.7-1.5,1.2-3.1,1.7-4.8c0.4-1.8,0.7-3.2,0.7-4.4c0-1.4-0.3-2.1-1-2.1
				c-0.4,0-1,0.4-1.8,1.1s-1.8,2-3.1,3.7c-1.9,2.4-3.9,5.8-6.1,10c-2.2,4.2-4.4,8.7-6.7,13.5s-4.3,9.4-6.2,13.9
				C206.5,151.2,205.1,154.8,204,157.8z"/>
			
				<radialGradient id="SVGID_00000119829363816829978600000001611171560851379372_" cx="240.1957" cy="934.3921" r="178.9878" gradientTransform="matrix(1 0 0 1 0 -778)" gradientUnits="userSpaceOnUse">
				<stop  offset="0" style="stop-color:#DDD1B5"/>
				<stop  offset="0.5" style="stop-color:#BDA981"/>
				<stop  offset="1" style="stop-color:#A28654"/>
			</radialGradient>
			<path style="fill:url(#SVGID_00000119829363816829978600000001611171560851379372_);" d="M230.3,190.8c-3.6,0-6.2-1.1-7.6-3.2
				c-1.5-2.1-2.2-4.5-2.2-7.3c0-1.5,0.2-3,0.5-4.5s0.8-2.9,1.2-4.2l9.8-25.1c0.3-0.8,0.4-1.5,0.4-2.1c0-1-0.2-1.8-0.7-2.6
				c-0.5-0.7-0.8-1.2-1-1.5l8.1-0.3c1.5-0.1,2.5,0.1,3.2,0.5c0.6,0.4,1,1,1,1.5s-0.3,1.7-1,3.2l-12.2,28.7c-1.1,2.5-1.7,3.9-1.8,4.3
				c-0.3,1.5-0.5,2.4-0.6,2.8c-0.1,0.4-0.1,0.6-0.1,0.7c0,0.1,0,0.5,0,1.2c0,1.3,0.3,2.4,1,3.2c0.6,0.9,1.7,1.3,3.3,1.3
				c1,0,2.1-0.3,3.4-0.9c1.3-0.6,2.2-1.2,2.8-1.8c2.4-2.5,4.9-5.9,7.3-10.1c2.4-4.2,4.6-8.3,6.7-12.4c0.4-1,0.9-1.5,1.5-1.5
				c0.5,0,0.7,0.3,0.7,1c0,0.4-0.1,1-0.4,1.8c-1,2.1-2.2,4.6-3.7,7.6s-3.2,6-5.2,9s-4.2,5.5-6.5,7.4
				C235.6,189.9,233,190.8,230.3,190.8z M242.2,131.2c-1.5,0-2.7-0.5-3.6-1.5c-0.9-1-1.4-2.3-1.4-3.7c0-1.9,0.7-3.5,2.2-4.8
				c1.5-1.4,3.1-2.1,4.8-2.1c1.6,0,2.8,0.5,3.8,1.5s1.5,2.2,1.5,3.5c0,1.9-0.7,3.5-2.2,5C245.8,130.6,244.1,131.2,242.2,131.2z"/>
			
				<radialGradient id="SVGID_00000004540886216928715090000010570482119294504375_" cx="240.1957" cy="934.3921" r="178.9878" gradientTransform="matrix(1 0 0 1 0 -778)" gradientUnits="userSpaceOnUse">
				<stop  offset="0" style="stop-color:#DDD1B5"/>
				<stop  offset="0.5" style="stop-color:#BDA981"/>
				<stop  offset="1" style="stop-color:#A28654"/>
			</radialGradient>
			<path style="fill:url(#SVGID_00000004540886216928715090000010570482119294504375_);" d="M263.8,191.4c-5.6,0-9.5-1.3-11.8-4
				s-3.4-6-3.4-9.9c0-4.3,1-8.9,3-13.8c2-4.9,4.4-9.2,7.1-12.8c2.8-3.8,6-6.8,9.4-8.9c3.4-2.1,6.9-3.2,10.4-3.2
				c3.7,0,6.5,0.9,8.2,2.8c1.8,1.9,2.4,4.4,2.1,7.5c-0.2,2-1.1,3.9-2.8,5.8c-1.7,1.9-3.3,2.9-5,2.9c-0.8,0-1.5-0.3-2.1-0.9
				c0.8-1,1.6-2.2,2.5-3.5c0.9-1.4,1.5-2.7,1.9-4c0.4-1.2,0.6-2.4,0.6-3.5c0-2.4-1.2-3.7-3.5-3.7c-2.6,0-5.4,1.3-8.3,4
				s-5.4,5.6-7.6,8.7c-0.9,1.2-1.9,3-3.2,5.5c-1.2,2.5-2.3,5.2-3.3,8.2s-1.5,5.9-1.5,8.7c0,2.9,0.7,5.6,2,7.9
				c1.3,2.3,3.5,3.5,6.7,3.5c4.3,0,8-1.3,11.1-4s5.8-6,8.2-10.1c2.4-4,4.6-7.9,6.5-11.8c0.6-1.2,1.2-1.8,1.8-1.8
				c0.5,0,0.7,0.4,0.7,1.2c0,0.4-0.1,0.9-0.4,1.5c-2.4,5.1-4.8,9.7-7.2,14c-2.4,4.2-5.4,7.5-8.9,10
				C273.7,190.2,269.3,191.4,263.8,191.4z"/>
			
				<radialGradient id="SVGID_00000084497708434152699470000007676430481406835106_" cx="240.1957" cy="934.3921" r="178.9878" gradientTransform="matrix(1 0 0 1 0 -778)" gradientUnits="userSpaceOnUse">
				<stop  offset="0" style="stop-color:#DDD1B5"/>
				<stop  offset="0.5" style="stop-color:#BDA981"/>
				<stop  offset="1" style="stop-color:#A28654"/>
			</radialGradient>
			<path style="fill:url(#SVGID_00000084497708434152699470000007676430481406835106_);" d="M321.7,191.3c-1.1,0.1-2.3-0.1-3.7-0.7
				c-1.4-0.6-2.6-1.7-3.6-3.2c-1-1.6-1.5-3.8-1.5-6.6c0-2.4,0.4-5.2,1.3-8.5c-1.2,1.9-2.7,4.1-4.6,6.8s-3.9,5.1-6,7.1
				c-1.9,1.8-3.6,3-5.3,3.8c-1.7,0.8-3.2,1.2-4.6,1.2c-2.5,0-4.6-1.2-6.2-3.5s-2.4-5.3-2.4-9c0-3.9,1-8.4,2.9-13.4
				c2-5,5.1-10.2,9.6-15.6c2.8-3.4,6.3-6.2,10.4-8.3s8.1-3.2,12-3.2c2.3,0,4.4,0.4,6.5,1.1c2.1,0.7,3.9,1.9,5.4,3.6
				c0.7,0.7,1,1.5,1,2.4c0,0.6-0.2,1.1-0.7,1.5s-1.1,0.5-1.9,0.3c-1.1-3.4-3.4-5.1-6.9-5.1c-1.7,0-3.6,0.5-5.7,1.6
				c-3.3,1.8-6.8,4.7-10.4,8.7s-6.7,8.2-9.3,12.5c-0.4,0.6-1,1.7-1.8,3.4s-1.6,3.5-2.4,5.6s-1.3,4.1-1.6,6c-0.1,0.6-0.1,1-0.1,1.2
				s0,0.6,0,1.1c0,3.2,1.2,4.8,3.7,4.8c2.9,0,6.3-2.2,10-6.5c2.5-3.1,4.8-6.4,6.9-9.8c2.1-3.4,4.2-7.1,6.3-11
				c1.5-2.6,2.8-4.8,4.1-6.6c1.3-1.8,3.1-2.6,5.4-2.6c1.1,0,2.2,0.1,3.2,0.4c1.1,0.3,2.2,0.3,3.4,0.1c-0.8,0.8-1.8,2.3-3.2,4.4
				c-1.3,2.2-2.7,4.6-4.2,7.3s-2.8,5.5-4,8.4c-1.2,2.8-2,5.3-2.5,7.3c-0.1,0.6-0.2,1.4-0.4,2.5c-0.1,1.1-0.2,1.9-0.2,2.4
				c0,2.7,0.8,4.1,2.4,4.1s3.3-0.9,5.1-2.8c1.8-1.9,3.6-4.2,5.4-6.9s3.4-5.5,4.8-8.3c1.5-2.8,2.6-5.1,3.5-6.8c0.4-1,1-1.5,1.8-1.5
				c0.5,0,0.7,0.3,0.7,1c0,0.3-0.1,0.8-0.4,1.6c-1.2,2.4-2.6,5.2-4.3,8.3c-1.7,3.1-3.5,6.1-5.4,9c-2,2.9-4,5.3-6.1,7.2
				C325.9,190,323.8,191.1,321.7,191.3z"/>
			
				<radialGradient id="SVGID_00000031208576863865392000000017891196795270069913_" cx="240.1957" cy="934.3921" r="178.9878" gradientTransform="matrix(1 0 0 1 0 -778)" gradientUnits="userSpaceOnUse">
				<stop  offset="0" style="stop-color:#DDD1B5"/>
				<stop  offset="0.5" style="stop-color:#BDA981"/>
				<stop  offset="1" style="stop-color:#A28654"/>
			</radialGradient>
			<path style="fill:url(#SVGID_00000031208576863865392000000017891196795270069913_);" d="M353.8,191.4c-5.6,0-9.5-1.3-11.8-4
				s-3.4-6-3.4-9.9c0-4.3,1-8.9,3-13.8c2-4.9,4.4-9.2,7.1-12.8c2.8-3.8,6-6.8,9.4-8.9c3.4-2.1,6.9-3.2,10.4-3.2
				c3.7,0,6.5,0.9,8.2,2.8c1.8,1.9,2.4,4.4,2.1,7.5c-0.2,2-1.1,3.9-2.8,5.8c-1.7,1.9-3.3,2.9-5,2.9c-0.8,0-1.5-0.3-2.1-0.9
				c0.8-1,1.6-2.2,2.5-3.5c0.9-1.4,1.5-2.7,1.9-4c0.4-1.2,0.6-2.4,0.6-3.5c0-2.4-1.2-3.7-3.5-3.7c-2.6,0-5.4,1.3-8.3,4
				s-5.4,5.6-7.6,8.7c-0.9,1.2-1.9,3-3.2,5.5c-1.2,2.5-2.3,5.2-3.3,8.2s-1.5,5.9-1.5,8.7c0,2.9,0.7,5.6,2,7.9
				c1.3,2.3,3.5,3.5,6.7,3.5c4.3,0,8-1.3,11.1-4s5.8-6,8.2-10.1c2.4-4,4.6-7.9,6.5-11.8c0.6-1.2,1.2-1.8,1.8-1.8
				c0.5,0,0.7,0.4,0.7,1.2c0,0.4-0.1,0.9-0.4,1.5c-2.4,5.1-4.8,9.7-7.2,14c-2.4,4.2-5.4,7.5-8.9,10
				C363.8,190.2,359.3,191.4,353.8,191.4z"/>
			
				<radialGradient id="SVGID_00000124877379722565109190000005310990334582747780_" cx="240.1957" cy="934.3921" r="178.9878" gradientTransform="matrix(1 0 0 1 0 -778)" gradientUnits="userSpaceOnUse">
				<stop  offset="0" style="stop-color:#DDD1B5"/>
				<stop  offset="0.5" style="stop-color:#BDA981"/>
				<stop  offset="1" style="stop-color:#A28654"/>
			</radialGradient>
			<path style="fill:url(#SVGID_00000124877379722565109190000005310990334582747780_);" d="M392.2,191.4c-5.6,0-9.5-1.3-11.8-4
				s-3.4-6-3.4-9.9c0-4.3,1-8.9,3-13.8c2-4.9,4.4-9.2,7.1-12.8c2.8-3.8,6-6.8,9.4-8.9c3.4-2.1,6.9-3.2,10.4-3.2
				c3.7,0,6.5,0.9,8.2,2.8c1.8,1.9,2.4,4.4,2.1,7.5c-0.2,2-1.1,3.9-2.8,5.8c-1.7,1.9-3.3,2.9-5,2.9c-0.8,0-1.5-0.3-2.1-0.9
				c0.8-1,1.6-2.2,2.5-3.5c0.9-1.4,1.5-2.7,1.9-4c0.4-1.2,0.6-2.4,0.6-3.5c0-2.4-1.2-3.7-3.5-3.7c-2.6,0-5.4,1.3-8.3,4
				s-5.4,5.6-7.6,8.7c-0.9,1.2-1.9,3-3.2,5.5c-1.2,2.5-2.3,5.2-3.3,8.2s-1.5,5.9-1.5,8.7c0,2.9,0.7,5.6,2,7.9
				c1.3,2.3,3.5,3.5,6.7,3.5c4.3,0,8-1.3,11.1-4s5.8-6,8.2-10.1c2.4-4,4.6-7.9,6.5-11.8c0.6-1.2,1.2-1.8,1.8-1.8
				c0.5,0,0.7,0.4,0.7,1.2c0,0.4-0.1,0.9-0.4,1.5c-2.4,5.1-4.8,9.7-7.2,14c-2.4,4.2-5.4,7.5-8.9,10
				C402.2,190.2,397.7,191.4,392.2,191.4z"/>
			
				<radialGradient id="SVGID_00000154402931367763827730000005544768463818618275_" cx="240.1957" cy="934.3921" r="178.9878" gradientTransform="matrix(1 0 0 1 0 -778)" gradientUnits="userSpaceOnUse">
				<stop  offset="0" style="stop-color:#DDD1B5"/>
				<stop  offset="0.5" style="stop-color:#BDA981"/>
				<stop  offset="1" style="stop-color:#A28654"/>
			</radialGradient>
			<path style="fill:url(#SVGID_00000154402931367763827730000005544768463818618275_);" d="M398.5,237.7c-5.1,0-8.7-1-10.9-3
				c-2.2-2-3.2-4.4-3.2-7.1c0-1.5,0.2-2.7,0.6-3.8s1-2.5,1.8-4.1c1.4-2.8,3.3-5.3,5.7-7.3c2.5-2.1,5.1-3.7,7.9-5
				c5.1-2.4,10.9-4.3,17.4-5.7c6.5-1.5,12.8-3.1,18.7-4.8c1.9-3.2,3.6-6.9,5.1-11.1c1.6-4.2,3-8.2,4.3-12.2s2.3-7.2,3.1-9.8
				c-1.2,2.2-2.7,4.8-4.5,7.9c-1.8,3.1-3.8,6.1-6.1,9c-2.3,2.9-4.7,5.4-7.3,7.3c-2.6,2-5.3,2.9-8.2,2.9c-1.1,0-2.4-0.2-3.9-0.7
				s-2.8-1.4-4-2.7c-1.1-1.3-1.7-3.3-1.7-6c0-2.5,0.6-5,1.8-7.4c1.2-2.4,2.4-4.7,3.5-7c-0.3,0-0.6-0.1-1-0.3
				c-0.3-0.2-0.5-0.5-0.5-0.9s0.1-0.8,0.3-1.2c0.4-0.8,0.8-1.6,1.3-2.5s0.9-1.8,1.3-2.8c1.5-3,2.9-6,4.4-8.7
				c1.5-2.8,2.7-5.3,3.8-7.4c1.1-2.2,2.9-3.2,5.6-3.2h9.1c-0.7,0.6-1.5,1.2-2.6,2c-1,0.7-2,1.8-2.9,3.3c-2.6,4.5-4.9,8.8-6.9,13
				s-4.1,8.6-6.3,13.3c-1.1,2.3-1.9,4.3-2.4,6.2s-0.7,3.5-0.7,4.8c0,3.2,1.1,4.8,3.2,4.8c2.4,0,5.2-1.9,8.5-5.7
				c2.7-3.2,5.5-7.1,8.3-11.5c2.8-4.5,5.5-9.1,8.1-13.8c2.6-4.8,4.9-9.1,6.8-13.2c1.1-2.2,3-3.2,5.7-3.2h8.1c-2.8,2-5,4.5-6.5,7.6
				s-3.2,7.2-5.1,12c-2.1,5.4-4,10.9-5.8,16.7c-1.8,5.7-3.8,11.5-6.1,17.3c3.2-1.1,6.9-2.7,10.9-5c4.1-2.3,7.5-5.5,10.4-9.7
				c2.3-3.3,4.2-6.5,5.8-9.6c1.6-3.1,2.8-5.3,3.5-6.7c0.4-1,0.9-1.5,1.6-1.5s1,0.4,1,1.3c0,0.5-0.1,1-0.4,1.6
				c-2.5,5.1-4.8,9.4-6.8,12.9s-4.2,6.5-6.6,9s-5.3,4.7-8.7,6.6c-3.4,1.9-7.8,3.8-13.1,5.8c-2.4,4.2-5,8.6-8,13.2
				s-6.4,8.8-10.1,12.8c-3.8,4-7.9,7.2-12.5,9.7C409,236.5,404,237.7,398.5,237.7z M395,234.8c3.2,0,6.6-1,10-2.9
				c3.4-2,6.8-4.4,10-7.4s6.2-6,8.9-9.1c2.7-3.1,4.9-5.8,6.5-8.2c0.5-0.7,1-1.6,1.6-2.6c0.6-1.1,1.2-2.1,1.8-3.1
				c-4.8,1.3-10.1,2.7-15.8,4.2c-5.7,1.5-10.7,3.2-14.9,5.1c-4.7,2-8.4,4.8-11.1,8.4s-4,6.9-4,9.7c0,1.8,0.6,3.2,1.7,4.3
				C390.7,234.2,392.5,234.8,395,234.8z"/>
		</g>
	</g>
	<g>
		<g>
			<path class="st11" d="M281.1,227.4c0.3-0.1,0.8-0.1,1.6,0c0.3,0,0.5-0.1,0.5-0.4l0,0c0.1-0.4-0.1-0.6-0.4-0.7
				c-0.2,0-0.3-0.1-0.4-0.2c-0.7-0.6-1.7-1.4-3.2-2.4c-0.2-0.1-0.5-0.5-0.9-1.1c-0.1-0.1-0.2-0.2-0.4-0.3c-0.7-0.1-1.2-0.4-1.7-0.9
				c0,0,0,0,0-0.1v-0.2c0-0.1,0-0.2-0.1-0.3c-1.3-0.7-2.7-1-4.2-0.9c29.7-0.7,59.4-1.2,89.1-1.5c2.4,0,5.1-0.2,7.7-0.3
				c6-0.1,5.8,9.4-0.2,9.4c-26.9,0-53.9-0.1-80.8-0.2C285.5,227.4,283.3,227.4,281.1,227.4z"/>
			<path class="st11" d="M271.9,220c1.5-0.1,2.9,0.2,4.2,0.9c0.1,0.1,0.2,0.2,0.1,0.3v0.2c0,0,0,0,0,0.1c0.5,0.5,1,0.7,1.7,0.9
				c0.2,0,0.3,0.1,0.4,0.3c0.4,0.6,0.7,1,0.9,1.1c1.5,1,2.6,1.8,3.2,2.4c0.1,0.1,0.3,0.2,0.4,0.2c0.3,0.1,0.4,0.3,0.4,0.7
				c0,0.3-0.3,0.4-0.5,0.4l0,0c-0.8-0.1-1.3-0.1-1.6,0L156.8,226c-2.1-0.2-4.3-0.1-6.3-0.4c-1.6-0.2-3.4-0.2-4.9-0.6
				c-1.1-0.3-1.2-0.7-0.2-1.3c0.9-0.5,2,0.2,2.9-0.2c0.2-0.1,0.3-0.1,0.5-0.1c1.6,0,3.2,0.1,4.8,0c0.6,0,1.3-0.2,2-0.3
				c0.1,0,0.1,0,0.1-0.1v-0.1L271.9,220z"/>
			<path class="st11" d="M155.7,222.9v0.1c0,0.1-0.1,0.1-0.1,0.1c-0.7,0.1-1.3,0.3-2,0.3c-1.6,0-3.2,0-4.8,0c-0.2,0-0.3,0-0.5,0.1
				c-0.8,0.4-2-0.3-2.9,0.2c-1,0.6-1,1,0.2,1.3c1.5,0.4,3.4,0.4,4.9,0.6c2,0.3,4.2,0.2,6.3,0.4h-7.6c-4.3-0.3-8.6-0.4-12.9-0.2
				l-38.6-0.4l-3.1-0.3c-0.2,0-0.3-0.1-0.4-0.3c-0.1-0.3-0.4-0.6-0.7-0.7c-0.2-0.1-0.3-0.2,0-0.4c0.5-0.3,1-0.5,1.7-0.7L155.7,222.9
				z"/>
			<path class="st11" d="M95.1,223.1c-0.7,0.2-1.2,0.4-1.7,0.7c-0.2,0.1-0.2,0.3,0,0.4c0.3,0.1,0.6,0.4,0.7,0.7
				c0.1,0.2,0.2,0.3,0.4,0.3l3.1,0.3c-10.8,0.1-21.5-0.1-32.1-0.6c-0.3,0-0.5-0.2-0.5-0.5v-0.2c0-0.4,0.2-0.7,0.7-0.7L95.1,223.1z"
				/>
		</g>
	</g>
	<g>
		<g>
			<path class="st11" d="M4.9,164.4c0.1-2,0.5-4.1,1.2-6.3s1.7-4.3,3-6.5c1.3-2.1,2.7-4.1,4.4-5.9c1.7-1.8,3.5-3.3,5.5-4.5
				s4.1-2,6.3-2.3s4.5-0.1,6.8,0.6c1.6-6.8,3.2-13.3,5-19.4s3.6-11.5,5.4-16.4c1.8-4.8,3.6-8.9,5.3-12.3s3.3-5.8,4.9-7.3
				c1.4-1.6,2.9-2.8,4.5-3.6c1.6-0.8,3.1-1,4.5-0.8c1.4,0.3,2.5,1.2,3.3,2.7s1.1,3.7,0.9,6.7c-0.2,2.6-0.9,5.6-1.8,8.8
				c-1,3.2-2.2,6.6-3.7,10.1s-3.2,7.1-5.1,10.8c-1.9,3.7-3.8,7.3-5.8,10.8c-2,3.6-4,7-6,10.3s-3.8,6.3-5.6,9
				c-1.5,3.9-2.9,8.1-4.2,12.5s-2.4,8.9-3.3,13.5s-1.6,9.2-2.1,14c-0.5,4.7-0.6,9.3-0.3,13.9c0.2,4.8,1.1,8.7,2.7,11.8
				c1.5,3.1,3.9,5.4,7,7c1.1,0.6,1.6,1.3,1.7,2.1c0,0.8-0.3,1.4-1,1.9s-1.7,0.7-2.9,0.6c-1.2-0.1-2.5-0.7-3.9-1.9
				c-2-1.9-3.5-4.6-4.6-8.2c-1.1-3.6-1.8-7.8-2.1-12.7c-0.4-6.5-0.3-13.6,0.5-21.5c0.7-7.8,1.8-15.9,3.2-24.1
				c-1.2,1.9-2.5,3.8-3.9,5.9c-1.5,2.1-3,4-4.7,5.6c-1.7,1.7-3.4,2.9-5.2,3.7s-3.7,0.8-5.6,0c-1.5-0.6-2.5-1.7-3.1-3.4
				S4.8,166.3,4.9,164.4z M31.1,143.3c-1.7-1-3.5-1-5.1,0c-1.7,0.9-3.2,2.2-4.7,4c-1.4,1.7-2.7,3.6-3.7,5.6s-1.7,3.7-2.2,5
				c-0.2,0.4-0.4,1-0.5,1.8c-0.2,0.8-0.3,1.5-0.5,2.3c-0.1,0.8-0.2,1.6-0.1,2.3c0.1,0.8,0.2,1.3,0.5,1.8c0.4,0.4,1.1,0.1,2.3-1
				s2.5-2.7,4.1-4.9s3.2-4.7,5-7.6C28,149.6,29.6,146.5,31.1,143.3z M52,102.2c-2.5,4.9-4.8,10.4-6.8,16.5c-2,6.2-3.7,12.3-5.2,18.6
				c1.4-2.6,2.9-5.3,4.5-8.1c1.5-2.8,3-5.7,4.5-8.6s2.9-5.8,4.2-8.8c1.3-2.9,2.5-5.8,3.6-8.5c1.5-3.8,2.4-6.7,2.8-8.5
				c0.4-1.9,0.3-2.8-0.3-2.8c-0.5,0-1.5,0.8-2.7,2.6C55.3,96.2,53.8,98.8,52,102.2z"/>
			<path class="st11" d="M57.3,149.9c0.8-1.2,1.9-2.4,3.1-3.7c1.2-1.3,2.5-2.4,4-3.4c1.4-1,3-1.7,4.6-2.2s3.3-0.5,5-0.2
				c1.6,0.4,2.8,1,3.7,1.8c0.8,0.8,1.3,1.8,1.4,2.8c0.2,1.2-0.2,2.3-1,3.4c-0.8,1.1-2,2-3.5,2.7c-1.5,0.8-3.2,1.4-5.1,1.8
				c-2,0.5-3.9,0.6-6,0.6c-0.6,1.4-1.2,2.9-1.7,4.7c-0.5,1.7-0.8,3.5-0.8,5.2s0.3,3.3,1,4.7s1.9,2.5,3.7,3.2c1.9,0.8,4,0.9,6.4,0.5
				c2.4-0.5,5-1.3,7.6-2.4c2.6-1.2,5.2-2.6,7.7-4.2c2.5-1.6,4.8-3.2,6.9-4.8s3.9-3,5.3-4.3s2.3-2.1,2.7-2.6c0.7-0.8,1.3-1.4,2.1-1.7
				c0.7-0.3,1.3-0.3,1.7-0.1c0.4,0.2,0.6,0.7,0.5,1.4s-0.6,1.5-1.5,2.6c-1.4,1.6-3.1,3.3-5.1,5.1s-4.3,3.5-6.7,5.1
				c-2.4,1.6-5,3.2-7.7,4.6c-2.7,1.4-5.5,2.6-8.3,3.5s-5.6,1.5-8.4,1.8s-5.4,0.2-7.9-0.3c-3.2-0.8-5.6-2.1-6.9-4.1
				c-1.4-1.9-2.1-4.1-2.2-6.6c-0.1-2.4,0.4-5,1.5-7.7C54.4,154.6,55.7,152.1,57.3,149.9z M71.6,144c-0.2-0.4-0.4-0.6-0.8-0.6
				c-0.3,0-0.8,0.2-1.3,0.6s-1.1,1.2-1.9,2.2s-1.6,2.4-2.6,4.2c0.9,0.1,1.8,0,2.7-0.5c0.9-0.5,1.6-1,2.3-1.7
				c0.7-0.7,1.1-1.4,1.4-2.2C71.8,145.2,71.8,144.5,71.6,144z"/>
			<path class="st11" d="M111,150.7c-0.7,1.5-1.7,3.8-2.8,7s-2.4,6.7-3.6,10.7c-1.2,3.9-2.3,8-3.2,12.3c-0.9,4.3-1.5,8.2-1.7,11.8
				s0.1,6.7,0.9,9.3s2.3,4.2,4.6,4.8c1.5,0.4,3.2,0.2,5.2-0.8c1.9-0.9,4-2.3,6.3-4.2c2.2-1.9,4.5-4.2,6.8-6.9s4.7-5.6,7-8.6
				c2.3-3.1,4.6-6.2,6.8-9.5s4.2-6.5,6-9.6c1.4-2.3,2.7-4.6,4.1-6.9c1.3-2.2,2.7-4.4,4.1-6.4c0.7-1.1,1.3-1.8,2-2
				c0.7-0.3,1.2-0.3,1.5,0c0.4,0.3,0.5,0.9,0.5,1.7c-0.1,0.8-0.5,1.8-1.3,2.8c-1.5,2.3-3,4.7-4.5,7.2s-3,5-4.6,7.6
				c-2.8,4.7-6,9.4-9.6,14.1c-3.6,4.6-7.2,8.8-11,12.5s-7.4,6.6-10.9,8.7c-3.5,2.1-6.6,3-9.2,2.7c-2.4-0.3-4.3-1.2-5.7-2.7
				c-1.4-1.5-2.4-3.5-3-5.9s-0.9-5.2-0.8-8.3s0.4-6.3,0.9-9.8c0.5-3.4,1.1-6.9,1.9-10.4s1.7-6.9,2.6-10.1c1.3-5,2.8-10,4.4-15.1
				s3.3-10.1,5-15c1.7-4.9,3.5-9.6,5.4-14.1s3.7-8.7,5.7-12.5c1.9-3.8,3.8-7.2,5.7-10.2s3.7-5.4,5.5-7.2c1.5-1.5,3.1-2.6,4.8-3.2
				s3.2-0.7,4.5-0.3c1.3,0.4,2.4,1.4,3.1,3c0.7,1.6,0.8,3.8,0.2,6.8c-0.5,2.6-1.4,5.5-2.7,8.6s-2.8,6.4-4.6,9.7
				c-1.8,3.4-3.8,6.8-6,10.3s-4.5,6.9-6.8,10.3c-2.3,3.4-4.7,6.6-6.9,9.6S113,148.1,111,150.7z M129.7,105.5
				c-2.9,4.6-5.6,9.9-8.1,15.8c-2.6,5.9-4.9,11.9-7,18c1.7-2.4,3.4-4.9,5.2-7.6c1.8-2.7,3.6-5.4,5.3-8.2s3.4-5.6,5-8.3
				c1.6-2.8,3-5.5,4.4-8.1c1.9-3.7,3-6.4,3.6-8.2c0.5-1.8,0.5-2.8,0-2.9s-1.5,0.7-3,2.3C133.5,99.9,131.8,102.3,129.7,105.5z"/>
			<path class="st11" d="M152.8,149.3c1.1-1,2.2-1.7,3.2-2c1.1-0.3,2-0.4,2.8-0.1c0.8,0.2,1.4,0.7,1.8,1.4c0.4,0.7,0.4,1.6,0.1,2.5
				c-1,3.1-1.7,5.7-1.9,7.9s-0.2,4.1,0.2,5.5c0.4,1.5,1,2.6,1.9,3.5c0.9,0.8,2,1.4,3.2,1.7c2.2,0.5,4.7,0.3,7.7-0.6
				c3-0.9,6-2.1,9-3.8s5.9-3.6,8.6-5.7c2.7-2.1,4.9-4.1,6.5-6c0.6-0.8,1.3-1.4,2-1.6c0.7-0.2,1.3-0.2,1.8,0s0.6,0.7,0.6,1.4
				c-0.1,0.7-0.5,1.5-1.4,2.5c-2,2.3-4.4,4.7-7.2,6.9c-2.8,2.3-5.8,4.3-9,5.9c-3.2,1.7-6.6,3-10,3.9c-3.5,0.9-6.8,1.2-10.1,0.8
				c-2.7-0.2-5-1.2-6.8-2.8s-3.2-3.6-4-6c-0.8-2.3-1.2-4.9-1-7.6C150.9,154.3,151.6,151.7,152.8,149.3z M156.6,137.8
				c0.2-1,0.7-1.9,1.4-2.8c0.7-0.8,1.4-1.5,2.2-2.1c0.8-0.5,1.6-0.9,2.4-0.9c0.8-0.1,1.4,0.1,1.8,0.6c0.4,0.5,0.5,1.4,0.4,2.6
				c-0.1,1.2-0.7,2.8-1.6,4.9c-0.5,0.9-1.3,1.5-2.2,1.8s-1.7,0.4-2.5,0.2s-1.4-0.6-1.8-1.4C156.3,140,156.3,139,156.6,137.8z"/>
			<path class="st11" d="M219.7,143.6c-0.2-1.4-0.6-2.3-1.3-2.7s-1.6-0.4-2.5-0.1c-1.9,0.7-3.7,1.9-5.4,3.7
				c-1.8,1.8-3.3,3.9-4.6,6.2s-2.3,4.8-3,7.3s-1,4.8-0.8,6.8c0.2,1.4,0.7,2.7,1.4,3.9c0.8,1.2,1.9,2.1,3.3,2.7
				c1.9,0.8,4,0.9,6.4,0.5c2.4-0.5,5-1.3,7.6-2.4s5.2-2.6,7.7-4.2c2.5-1.6,4.8-3.2,6.9-4.8c2.1-1.6,3.9-3,5.3-4.3
				c1.4-1.3,2.3-2.1,2.7-2.6c0.7-0.8,1.4-1.4,2.1-1.7s1.3-0.3,1.7-0.1s0.6,0.7,0.5,1.4s-0.6,1.5-1.5,2.6c-1.4,1.6-3.1,3.3-5.1,5.1
				s-4.3,3.5-6.7,5.1s-5,3.2-7.7,4.6c-2.7,1.4-5.5,2.6-8.3,3.5s-5.6,1.5-8.4,1.8c-2.8,0.3-5.4,0.2-7.9-0.3c-2.5-0.6-4.6-1.6-6.3-3.1
				s-2.7-3.7-2.8-6.6c-0.1-2.8,0.4-5.7,1.7-9c1.2-3.2,3-6.2,5.2-9s4.9-5.1,8-7s6.3-2.9,9.8-3c1.7-0.1,3.2,0.5,4.4,1.7
				c1.3,1.2,2.1,2.9,2.6,5.2c0,1.1-0.3,1.8-0.8,2.2s-1.1,0.6-1.7,0.4c-0.6-0.1-1.1-0.5-1.6-1.2C219.9,145.6,219.6,144.7,219.7,143.6
				z"/>
			<path class="st11" d="M268.7,153.2c-0.7,0.5-1.5,1.5-2.6,2.9c-1,1.4-2.2,2.9-3.6,4.6c-1.3,1.7-2.8,3.4-4.3,5.1
				c-1.6,1.7-3.2,3.2-4.8,4.4c-1.7,1.2-3.3,2.1-5,2.6s-3.4,0.3-5-0.5c-1.4-0.7-2.4-1.9-2.8-3.7s-0.6-3.5-0.3-5.4
				c0.4-3.7,1.6-7.2,3.6-10.4c1.9-3.2,4.4-5.9,7.3-8.1c2.9-2.2,6.2-3.9,9.8-5c3.6-1.1,7.3-1.3,11.1-0.8c2.3,0.3,4.4,1,6.4,2.1
				s3.5,2.7,4.5,4.9c0.5,1,0.6,1.8,0.3,2.4c-0.3,0.6-0.8,1-1.4,1.1s-1.3,0-2.1-0.5c-0.8-0.4-1.3-1.2-1.8-2.3
				c-0.8-1.6-1.9-2.7-3.1-3.6c-1.3-0.8-2.6-1.3-4.1-1.4c-1.9-0.2-3.8,0.2-5.7,1c-1.9,0.9-3.8,2.1-5.5,3.6s-3.3,3.3-4.8,5.3
				c-1.4,2-2.6,4-3.4,6c-0.2,0.4-0.4,1-0.7,1.7s-0.5,1.5-0.7,2.3s-0.3,1.6-0.3,2.3c0,0.8,0.1,1.3,0.4,1.8c0.2,0.4,0.8,0.2,1.8-0.4
				c0.9-0.6,2-1.5,3.3-2.6c1.3-1.1,2.6-2.4,4-3.8c1.4-1.4,2.8-2.8,4-4.1c1.3-1.3,2.4-2.5,3.4-3.5s1.6-1.7,1.9-2c1.1-1,2.2-1.7,3.2-2
				c1.1-0.3,2-0.4,2.8-0.1c0.8,0.2,1.4,0.7,1.8,1.4s0.4,1.6,0.1,2.5c-1,3.1-1.7,5.7-1.9,7.9c-0.2,2.2-0.2,4.1,0.2,5.5
				c0.4,1.5,1,2.6,1.9,3.5c0.9,0.8,2,1.4,3.2,1.7c2.2,0.5,4.7,0.3,7.7-0.6c3-0.9,6-2.1,9-3.8s5.9-3.6,8.6-5.7c2.7-2.1,4.9-4.1,6.5-6
				c0.6-0.8,1.3-1.4,2-1.6c0.7-0.2,1.3-0.2,1.8,0s0.6,0.7,0.6,1.4c-0.1,0.7-0.5,1.5-1.4,2.5c-2,2.3-4.4,4.7-7.2,6.9
				c-2.8,2.3-5.8,4.3-9,5.9c-3.2,1.7-6.6,3-10,3.9c-3.5,0.9-6.8,1.2-10.1,0.8c-2.7-0.2-5-1-6.8-2.2s-3.1-2.8-3.9-4.6
				s-1.1-3.9-0.9-6.2C266.7,158.1,267.4,155.7,268.7,153.2z"/>
			<path class="st11" d="M335.3,143.6c-0.2-1.4-0.6-2.3-1.3-2.7c-0.7-0.4-1.6-0.4-2.5-0.1c-1.9,0.7-3.7,1.9-5.4,3.7
				c-1.8,1.8-3.3,3.9-4.6,6.2c-1.3,2.3-2.3,4.8-3,7.3s-1,4.8-0.8,6.8c0.2,1.4,0.7,2.7,1.4,3.9c0.8,1.2,1.9,2.1,3.3,2.7
				c1.9,0.8,4,0.9,6.4,0.5c2.4-0.5,5-1.3,7.6-2.4s5.2-2.6,7.7-4.2c2.5-1.6,4.8-3.2,6.9-4.8s3.9-3,5.3-4.3s2.3-2.1,2.7-2.6
				c0.7-0.8,1.4-1.4,2.1-1.7s1.3-0.3,1.7-0.1c0.4,0.2,0.6,0.7,0.5,1.4s-0.6,1.5-1.5,2.6c-1.4,1.6-3.1,3.3-5.1,5.1s-4.3,3.5-6.7,5.1
				s-5,3.2-7.7,4.6c-2.7,1.4-5.5,2.6-8.3,3.5s-5.6,1.5-8.4,1.8s-5.4,0.2-7.9-0.3c-2.5-0.6-4.6-1.6-6.3-3.1c-1.7-1.5-2.7-3.7-2.8-6.6
				c-0.1-2.8,0.4-5.7,1.7-9c1.2-3.2,3-6.2,5.2-9s4.9-5.1,8-7s6.3-2.9,9.8-3c1.7-0.1,3.2,0.5,4.4,1.7c1.3,1.2,2.1,2.9,2.6,5.2
				c0,1.1-0.3,1.8-0.8,2.2s-1.1,0.6-1.7,0.4c-0.6-0.1-1.1-0.5-1.6-1.2C335.4,145.6,335.2,144.7,335.3,143.6z"/>
			<path class="st11" d="M382.6,143.6c-0.2-1.4-0.6-2.3-1.3-2.7c-0.7-0.4-1.6-0.4-2.5-0.1c-1.9,0.7-3.7,1.9-5.4,3.7
				c-1.8,1.8-3.3,3.9-4.6,6.2c-1.3,2.3-2.3,4.8-3,7.3s-1,4.8-0.8,6.8c0.2,1.4,0.7,2.7,1.4,3.9c0.8,1.2,1.9,2.1,3.3,2.7
				c1.9,0.8,4,0.9,6.4,0.5c2.4-0.5,5-1.3,7.6-2.4s5.2-2.6,7.7-4.2c2.5-1.6,4.8-3.2,6.9-4.8s3.9-3,5.3-4.3s2.3-2.1,2.7-2.6
				c0.7-0.8,1.4-1.4,2.1-1.7s1.3-0.3,1.7-0.1c0.4,0.2,0.6,0.7,0.5,1.4s-0.6,1.5-1.5,2.6c-1.4,1.6-3.1,3.3-5.1,5.1s-4.3,3.5-6.7,5.1
				s-5,3.2-7.7,4.6c-2.7,1.4-5.5,2.6-8.3,3.5s-5.6,1.5-8.4,1.8s-5.4,0.2-7.9-0.3c-2.5-0.6-4.6-1.6-6.3-3.1c-1.7-1.5-2.7-3.7-2.8-6.6
				c-0.1-2.8,0.4-5.7,1.7-9c1.2-3.2,3-6.2,5.2-9s4.9-5.1,8-7s6.3-2.9,9.8-3c1.7-0.1,3.2,0.5,4.4,1.7c1.3,1.2,2.1,2.9,2.6,5.2
				c0,1.1-0.3,1.8-0.8,2.2s-1.1,0.6-1.7,0.4c-0.6-0.1-1.1-0.5-1.6-1.2C382.8,145.6,382.5,144.7,382.6,143.6z"/>
			<path class="st11" d="M433.3,155c0.3-1.5,0.3-2.2,0.1-2c-0.2,0.2-0.7,0.7-1.3,1.6c-1.1,1.6-2.3,3.5-3.8,5.7
				c-1.4,2.2-2.9,4.4-4.4,6.6c-1.1,1.6-2.2,3.1-3.4,4.5c-1.2,1.4-2.4,2.5-3.7,3.5c-1.3,0.9-2.6,1.5-4.1,1.8
				c-1.4,0.3-2.9,0.2-4.5-0.5c-1.3-0.5-2.2-1.3-2.9-2.6c-0.7-1.2-1.2-2.6-1.4-4.1c-0.2-1.5-0.3-3-0.2-4.5c0.1-1.5,0.3-2.8,0.5-3.9
				c0.4-2,0.9-4,1.6-5.9s1.3-3.8,2-5.5s1.5-3.2,2.2-4.6c0.8-1.4,1.5-2.4,2.2-3.1c0.8-1,1.7-1.6,2.7-1.9c1-0.2,1.8-0.1,2.7,0.3
				c0.8,0.4,1.4,1.1,1.8,2s0.5,2.1,0.3,3.4c-0.3,1-0.9,2.4-1.8,4.1c-0.9,1.7-1.9,3.6-2.9,5.7c-1,2.1-2,4.3-2.8,6.6s-1.3,4.6-1.4,6.8
				c-0.2,1-0.2,1.6,0,2s0.5,0.6,0.9,0.6s0.9-0.2,1.5-0.5s1.1-0.7,1.6-1.1c1.3-1,2.7-2.4,4.4-4.2c1.7-1.8,3.4-3.6,5-5.6
				c1.7-2,3.3-4,4.8-5.9c1.5-2,2.8-3.8,3.7-5.3c0.2-0.4,0.6-0.7,1.1-1.1c0.5-0.4,1-0.5,1.5-0.5s0.9,0.2,1.3,0.7s0.5,1.3,0.5,2.5
				c-0.1,2.5-0.3,6-0.7,10.3c-0.4,4.4-1.1,9.3-2.1,14.7c2.7-2.4,5.6-4.7,8.7-7c3.1-2.2,6.3-4.3,9.5-6.3s6.4-3.6,9.6-5.1
				s6.2-2.7,9.1-3.7c1.4-0.5,2.4-0.7,3-0.5s0.9,0.6,0.9,1.1s-0.2,1-0.6,1.6c-0.4,0.5-0.9,0.9-1.4,1c-3.1,0.7-6.4,1.9-9.9,3.6
				c-3.5,1.7-7.1,3.6-10.7,5.9c-3.6,2.2-7,4.7-10.3,7.4s-6.3,5.4-8.9,8.1c-1.1,5.7-2.4,11.6-4.1,17.7c-1.7,6.1-3.6,12.1-5.9,17.8
				c-2.2,5.8-4.8,11.2-7.7,16.2c-2.9,5-6.2,9.3-9.9,12.8c-1.5,1.4-3.1,2.5-4.8,3.1c-1.7,0.6-3.2,0.8-4.5,0.4c-1.3-0.4-2.3-1.4-3-2.9
				c-0.7-1.6-0.8-3.8-0.2-6.8c0.5-2.6,1.4-5.6,2.7-8.8c1.3-3.2,3-6.6,4.9-10.1s4-7.1,6.3-10.7c2.3-3.6,4.6-7.1,6.9-10.4
				c2.3-3.4,4.6-6.5,6.8-9.4c2.2-2.9,4.1-5.4,5.8-7.5c0.7-2.4,1.4-4.9,2.1-7.6c0.7-2.7,1.3-5.3,1.9-7.9c0.6-2.6,1.1-5,1.5-7.2
				C432.6,158.3,433,156.5,433.3,155z M407.9,228.3c2.9-4.6,5.6-9.9,8.1-15.8c2.5-5.9,4.9-11.9,7-18c-1.7,2.4-3.4,4.9-5.2,7.6
				c-1.8,2.7-3.6,5.4-5.3,8.2s-3.4,5.6-5,8.4c-1.6,2.8-3,5.5-4.4,8.1c-1.9,3.7-3,6.4-3.6,8.2c-0.5,1.8-0.5,2.8,0,2.9s1.5-0.7,3-2.3
				C404.1,234,405.9,231.5,407.9,228.3z"/>
		</g>
	</g>
</g>
<g id="Capa_2_00000092422150129559124320000002191652039056667812_">
	<g>
		<path class="st12" d="M214.2,111.5c-8.4-11-20.1-20.4-33.3-24.9c-1.8-0.6-3.7-1-5.6-1c-0.2,0-0.3-0.1-0.3-0.3c0,0,0,0,0-0.1
			c1-4.7,6.6-6.1,10.6-4.8c8.9,2.7,17.5,10.5,23.6,17.5c4.1,4.7,7.4,9.2,9.9,13.3c2.3,4,5,10.8,3.3,15.4c-0.3,0.8-0.6,0.8-0.9,0
			C219.7,120.9,217.7,116.1,214.2,111.5z"/>
		<path class="st12" d="M216.5,92c4,10,11.2,16.7,21.3,20.2c0.5,0.2,0.6,0.5,0.2,0.8c-0.1,0.1-0.1,0.1-0.2,0.1
			c-6.4,2.1-13.4-3.5-17.8-7.7c-5.9-5.6-11.3-12.1-17.2-17c-0.2-0.2-0.2-0.3,0.1-0.4c2.1-0.9,10.5-4.1,11.6-1.1
			C215.2,88.6,215.9,90.3,216.5,92z"/>
		<path class="st12" d="M186.2,100.3c-4.7-2.3-8.9-3.8-14.1-1.7c-0.5,0.2-0.6,0.1-0.3-0.4c2.1-3.4,5.4-5.1,9.7-5
			c9.9,0.2,19.8,7.7,26,15.4c5.2,6.5,9.9,14.5,8.8,23.2c0,0.3-0.2,0.6-0.3,0.7c-0.2,0.2-0.6,0.2-0.8-0.1c0,0,0-0.1-0.1-0.1
			c-1.3-2.7-2.3-5.5-3.6-8.2c-2.3-5-6.6-9.6-11-13.8C196.3,106.3,191.5,103,186.2,100.3z"/>
		<path class="st12" d="M173.6,106.2c2.1-3.3,11.5-1.7,10.3,3.2c-0.8,3.7-5.3,4.7-8.4,3.5C172.6,111.8,172.1,108.7,173.6,106.2z"/>
		<ellipse transform="matrix(0.83 -0.5577 0.5577 0.83 -35.7559 135.4765)" class="st12" cx="204.4" cy="126.4" rx="4.6" ry="4.3"/>
	</g>
</g>
</svg>
