<svg xmlns="http://www.w3.org/2000/svg" viewBox="0 0 400 316.45"><defs><style>.cls-1{fill:#ca393b;}</style></defs><g id="Capa_2" data-name="Capa 2"><g id="Capa_1-2" data-name="Capa 1"><g id="Capa_2-2" data-name="Capa 2"><path class="cls-1" d="M255.61,189.51C205.17,123.46,134.92,67,55.66,40,44.85,36.4,33.44,34,22,34a1.59,1.59,0,0,1-1.8-1.8v-.6C26.23,3.37,59.86-5,83.88,2.77,137.32,19,189,65.82,225.59,107.85,250.2,136.07,270,163.09,285,187.71c13.81,24,30,64.85,19.82,92.47q-2.72,7.21-5.41,0C288.63,246,276.62,217.13,255.61,189.51Z"/><path class="cls-1" d="M269.42,72.42c24,60.05,67.25,100.28,127.9,121.3,3,1.2,3.6,3,1.2,4.8-.6.6-.6.6-1.2.6-38.43,12.61-80.46-21-106.88-46.23C255,119.26,222.58,80.23,187.16,50.81c-1.2-1.2-1.2-1.8.6-2.4,12.61-5.41,63-24.62,69.65-6.61C261.61,52,265.82,62.22,269.42,72.42Z"/><path class="cls-1" d="M87.48,122.26C59.26,108.45,34,99.44,2.81,112.05c-3,1.21-3.6.6-1.8-2.4C13.62,89.24,33.44,79,59.26,79.63c59.44,1.2,118.89,46.23,156.12,92.47,31.22,39,59.44,87.07,52.84,139.31a6.86,6.86,0,0,1-1.8,4.2,3.18,3.18,0,0,1-4.81-.6.59.59,0,0,0-.6-.6c-7.8-16.21-13.81-33-21.61-49.24-13.81-30-39.63-57.64-66.05-82.86C148.13,158.29,119.3,138.47,87.48,122.26Z"/><path class="cls-1" d="M11.82,157.69c12.61-19.82,69.05-10.21,61.85,19.21-4.8,22.22-31.83,28.23-50.44,21C5.82,191.31,2.81,172.7,11.82,157.69Z"/><ellipse class="cls-1" cx="196.7" cy="278.95" rx="27.62" ry="25.82" transform="translate(-122.14 157.12) rotate(-33.9)"/></g></g></g></svg>